<?xml version="1.0" standalone="no"?>
<!DOCTYPE svg PUBLIC "-//W3C//DTD SVG 20010904//EN"
 "http://www.w3.org/TR/2001/REC-SVG-20010904/DTD/svg10.dtd">
<svg version="1.0" xmlns="http://www.w3.org/2000/svg"
 width="512.000000pt" height="512.000000pt" viewBox="0 0 512.000000 512.000000"
 preserveAspectRatio="xMidYMid meet">
<metadata>
Created by potrace 1.14, written by Peter Selinger 2001-2017
</metadata>
<g transform="translate(0.000000,512.000000) scale(0.100000,-0.100000)"
fill="#000000" stroke="none">
<path d="M2097 4850 c-62 -11 -127 -92 -127 -157 0 -50 41 -114 90 -140 39
-21 56 -23 192 -23 l148 0 0 -55 c0 -30 -4 -55 -10 -55 -5 0 -60 -7 -121 -16
-793 -110 -1457 -676 -1698 -1444 -25 -83 -46 -171 -67 -285 -23 -124 -27
-455 -8 -595 109 -798 649 -1452 1412 -1709 312 -105 668 -132 1002 -76 713
121 1326 621 1587 1295 108 276 144 486 138 795 -5 294 -46 499 -151 753 -165
400 -469 756 -839 982 -209 128 -502 239 -720 275 -55 8 -177 24 -192 25 -9 0
-13 18 -13 55 l0 55 148 0 c136 0 153 2 192 23 58 30 94 94 87 154 -5 51 -24
82 -73 120 l-37 27 -456 1 c-251 0 -468 -2 -484 -5z m628 -754 c161 -13 363
-64 524 -133 533 -229 917 -702 1035 -1275 50 -243 39 -546 -30 -805 -180
-677 -771 -1191 -1473 -1279 -801 -101 -1559 352 -1860 1109 -32 79 -77 237
-87 302 -3 22 -9 56 -13 75 -11 53 -16 140 -15 285 6 801 569 1499 1361 1684
105 24 127 28 243 37 47 4 86 7 87 8 4 3 153 -2 228 -8z"/>
<path d="M2494 3560 c-32 -13 -82 -76 -89 -112 -3 -18 -5 -285 -3 -594 l3
-560 25 -37 c49 -71 46 -71 558 -71 515 1 509 0 559 75 41 62 30 154 -23 200
-50 43 -55 44 -424 46 -195 1 -361 2 -367 2 -10 1 -13 101 -13 466 0 517 1
508 -66 563 -32 27 -47 32 -89 31 -27 0 -59 -4 -71 -9z"/>
</g>
</svg>
